<?xml version="1.0" standalone="no"?>
<!DOCTYPE svg PUBLIC "-//W3C//DTD SVG 20010904//EN"
 "http://www.w3.org/TR/2001/REC-SVG-20010904/DTD/svg10.dtd">
<svg version="1.0" xmlns="http://www.w3.org/2000/svg"
 width="700.000000pt" height="700.000000pt" viewBox="0 0 700.000000 700.000000"
 preserveAspectRatio="xMidYMid meet">
<metadata>
Created by potrace 1.11, written by Peter Selinger 2001-2013
</metadata>
<g transform="translate(0.000000,700.000000) scale(0.100000,-0.100000)"
fill="#000000" stroke="none">
<path d="M3355 6579 c-86 -15 -390 -154 -630 -287 -38 -21 -95 -52 -125 -69
-98 -54 -234 -130 -267 -149 -17 -11 -78 -46 -135 -78 -243 -140 -973 -582
-1258 -761 -374 -236 -335 -215 -405 -215 -152 0 -272 -96 -305 -245 -11 -47
-16 -3992 -5 -4044 17 -85 60 -159 122 -211 79 -65 -162 -60 3151 -60 3339 0
3077 -5 3160 65 50 44 95 115 111 178 15 62 17 4002 1 4071 -20 92 -72 163
-152 210 -53 31 -74 34 -219 35 l-116 1 -84 52 c-71 43 -550 332 -614 370 -92
55 -530 310 -565 330 -25 14 -104 59 -176 100 -71 41 -137 77 -145 81 -8 4
-27 15 -44 25 -165 100 -753 408 -930 488 -125 57 -145 65 -203 85 -85 30
-123 36 -167 28z m-150 -186 c-35 -133 38 -256 166 -278 137 -24 268 121 232
256 -6 21 -8 39 -6 39 3 0 86 -40 186 -89 240 -118 446 -228 802 -426 139 -77
518 -293 615 -350 213 -126 285 -168 305 -179 57 -32 551 -330 559 -337 6 -5
-1127 -9 -2625 -9 l-2634 0 38 23 c20 12 81 49 135 83 275 171 611 379 637
394 17 10 138 82 270 162 132 79 247 147 255 151 8 4 27 15 42 25 22 14 420
242 553 317 93 52 461 242 474 244 2 1 0 -11 -4 -26z"/>
</g>
</svg>
